HIERARCHY
ROOT pelvis
{
  OFFSET 0 100 0
  CHANNELS 6 Xposition Yposition Zposition Zrotation Xrotation Yrotation
  JOINT pelvis_right_femur
  {
    OFFSET -10.78128 -3.44521 -0.5502486
    CHANNELS 3 Zrotation Xrotation Yrotation
    JOINT right_femur_tibia
    {
      OFFSET -0.8047443 -44.0398 -0.1307829
      CHANNELS 3 Zrotation Xrotation Yrotation
      JOINT right_tibia_foot
      {
        OFFSET 3.006224 -47.83518 -5
        CHANNELS 3 Zrotation Xrotation Yrotation
        End Site
        {
          OFFSET 0 -5 15
        }
      }
    }
  }
  JOINT pelvis_left_femur
  {
    OFFSET 10.78128 -3.44521 -0.5502486
    CHANNELS 3 Zrotation Xrotation Yrotation
    JOINT left_femur_tibia
    {
      OFFSET 0.8047443 -44.0398 -0.1307829
      CHANNELS 3 Zrotation Xrotation Yrotation
      JOINT left_tibia_foot
      {
        OFFSET -4.370144 -48.10324 -4.275266
        CHANNELS 3 Zrotation Xrotation Yrotation
        End Site
        {
          OFFSET 0 -5 15
        }
      }
    }
  }
  JOINT pelvis_spine1
  {
    OFFSET 0 6.468898 -3.129235
    CHANNELS 3 Zrotation Xrotation Yrotation
    JOINT spine1
    {
      OFFSET 0 23.15396 4.99043
      CHANNELS 3 Zrotation Xrotation Yrotation
      JOINT spine2
      {
        OFFSET 0 20.79997 -5.064912
        CHANNELS 3 Zrotation Xrotation Yrotation
        JOINT neck
        {
          OFFSET 0 14.38658 9.616178
          CHANNELS 3 Zrotation Xrotation Yrotation
          End Site
          {
            OFFSET 0 20 0
          }
        }
      }
      JOINT right_manubrium
      {
        OFFSET -5.722621 16.35077 3.967754
        CHANNELS 3 Zrotation Xrotation Yrotation
        JOINT right_clavicle
        {
          OFFSET -13.16364 1.694482 -4.693211
          CHANNELS 3 Zrotation Xrotation Yrotation
          JOINT right_humerus
          {
            OFFSET -28.5034 -0.3100689 -2.792744
            CHANNELS 3 Zrotation Xrotation Yrotation
            JOINT right_radius
            {
              OFFSET -25.15693 0.02248979 -1.271978
              CHANNELS 3 Zrotation Xrotation Yrotation
              End Site
              {
                OFFSET -15 0 0
              }
            }
          }
        }
      }
      JOINT left_manubrium
      {
        OFFSET 5.722621 16.35077 3.967754
        CHANNELS 3 Zrotation Xrotation Yrotation
        JOINT left_clavicle
        {
          OFFSET 13.16364 1.694482 -4.693211
          CHANNELS 3 Zrotation Xrotation Yrotation
          JOINT left_humerus
          {
            OFFSET 29.39168 -1.063119 -2.237045
            CHANNELS 3 Zrotation Xrotation Yrotation
            JOINT left_radius
            {
              OFFSET 24.59957 -0.9528479 0.9047498
              CHANNELS 3 Zrotation Xrotation Yrotation
              End Site
              {
                OFFSET 15 -0 -0
              }
            }
          }
        }
      }
    }
  }
}
MOTION
Frames: 15
Frame Time: 0.0416666666667
0 103.5113 0 0.9139484 -0.8731785 -0.1925516 4.25077 -16.66225 10.54139 -0 39.35419 -0 -4.503205 -17.20735 -3.745338 -7.10062 10.09166 -23.94315 -0 6.083251 -0 10.04945 -15.74203 28.39292 -3.822826 -3.6086 4.767397 2.573243 9.675177 -7.665679 1.357828 21.8361 6.864829 3.319848 -24.11423 9.294559 7.259677 -20.00909 11.93977 84.51375 36.85975 -18.2152 -0 0 17.48642 -6.884811 8.691413 4.30266 5.596887 -18.60495 -1.760873 -94.49465 26.51362 22.97489 0 0 -14.74855 7.334588 16.51176 5.236838
0.3101455 103.3575 1.403526 0.8450305 -1.075121 -0.3498616 4.109426 -17.01055 10.08254 -0 39.33719 -0 -4.86468 -16.53407 -3.688853 -6.954884 10.43605 -23.58537 -0 5.883867 -0 9.664241 -15.94658 27.86057 -3.744442 -3.467509 4.561955 2.5289 9.704924 -7.69209 1.320294 21.93268 6.888055 3.282177 -24.07813 9.268116 6.982454 -19.9159 11.8846 84.87649 36.41712 -18.37292 -0 0 17.08912 -7.234182 8.582792 4.510429 5.559044 -18.83385 -1.916938 -94.01538 26.56362 22.37921 0 0 -15.12733 7.373836 16.45602 5.179645
0.5399868 102.5514 4.183001 -0.1665631 0.2194591 0.09663715 4.477175 -26.82486 6.558038 -0 28.78998 -0 -6.128457 -11.12277 -2.982977 -6.130107 13.98814 -19.92368 -0 4.549015 -0 4.757932 -21.68748 21.68577 -2.834229 -1.714062 3.753085 2.631255 8.645667 -7.775282 1.580751 21.66135 7.075865 2.827112 -25.5062 10.05935 3.983241 -18.58799 10.71056 87.74989 31.7581 -20.59928 -0 0 13.96708 -7.694373 7.366385 4.896802 6.565969 -20.95018 -1.628147 -90.66587 27.93474 17.58377 0 0 -21.21274 7.736636 15.14232 5.559588
0.7705411 101.615 7.343784 -0.4914466 1.258371 0.6691852 5.151411 -29.65114 6.352439 -0 25.05762 -0 -6.077347 -9.943548 -2.731627 -6.021905 14.53929 -19.21689 -0 5.38838 -0 3.934812 -22.82937 20.61569 -2.630057 -1.462806 3.7953 2.797514 8.365635 -7.849518 1.685066 21.25995 7.183428 2.921274 -26.05333 10.30678 3.793875 -18.1985 10.51404 87.97931 31.78904 -21.17242 -0 0 13.37424 -7.369995 7.498158 4.607525 7.043792 -21.35334 -1.217674 -90.31138 27.68566 16.97092 0 0 -22.49102 8.37842 14.80615 4.992859
1.070331 100.7106 10.74247 -0.8562211 2.960584 1.317574 6.303007 -31.947 6.964914 -0 21.83521 -0 -5.811503 -8.920856 -2.232365 -6.049749 14.18583 -19.12999 -0 6.475292 -0 3.736264 -23.52297 20.2552 -2.48581 -1.489455 4.144428 3.032069 8.22595 -7.966636 1.716049 20.54564 7.464003 3.324617 -26.83941 10.54419 4.407732 -18.08179 10.56357 87.55654 33.40798 -21.63972 -0 0 13.48419 -6.695781 8.10274 4.130253 7.572701 -21.54842 -0.5964136 -91.0573 27.33163 18.03006 0 0 -23.09273 8.936997 14.70172 4.650908
1.409726 99.79187 14.42905 -1.284492 4.007206 2.039119 7.175391 -33.57476 7.198983 -0 19.67189 -0 -5.997542 -7.536458 -1.876003 -5.863806 14.13666 -18.7149 -0 7.904141 -0 2.838886 -23.85101 19.37675 -2.203199 -1.393182 4.171468 3.138695 8.135208 -8.068353 1.714924 20.08802 7.690453 3.642156 -27.25783 10.64973 4.733875 -17.82651 10.54377 87.47901 34.4051 -22.04619 -0 0 13.21608 -6.501321 8.593737 3.889399 7.894855 -21.7711 -0.2785946 -91.38324 27.17952 18.47782 0 0 -23.54241 9.138252 14.60311 4.629469
1.77785 98.91949 18.45027 -1.775215 4.747377 2.825313 7.97867 -34.69704 7.336836 -0 18.14575 -0 -6.409656 -6.073784 -1.600518 -5.533375 14.15526 -18.15853 -0 9.795793 -0 1.465457 -23.79532 18.18849 -1.8104 -1.253097 4.033784 3.173254 8.064328 -8.167105 1.686911 19.73832 7.895093 3.94576 -27.44001 10.65315 5.022398 -17.48164 10.49901 87.49447 35.26772 -22.39743 -0 0 12.81989 -6.509646 9.102159 3.733441 8.094487 -21.94665 -0.1126695 -91.62398 27.18715 18.7817 0 0 -23.75378 9.048188 14.52377 4.912059
2.163709 98.12795 22.84312 -2.283378 5.118944 3.641184 8.657012 -35.25496 7.324159 -0 17.20718 -0 -6.967342 -4.714373 -1.430373 -5.085593 14.27888 -17.43011 -0 12.19663 -0 -0.1619513 -23.23209 16.80634 -1.33371 -1.095627 3.738893 3.15606 8.030879 -8.272208 1.626122 19.51872 8.044054 4.181042 -27.37233 10.54135 5.230387 -17.05484 10.44013 87.62833 35.89305 -22.68467 -0 0 12.25669 -6.744383 9.592298 3.692516 8.158841 -22.07511 -0.1070507 -91.63337 27.16209 18.75153 0 0 -23.74659 8.862188 14.38687 5.216625
2.558484 97.47089 27.64705 -2.785197 5.140906 4.440484 9.225655 -35.17022 7.187403 -0 16.78101 -0 -7.588107 -3.590404 -1.384742 -4.540395 14.46453 -16.52727 -0 15.29396 -0 -1.953825 -22.05753 15.29398 -0.7767153 -0.9462549 3.31823 3.104148 8.036731 -8.390203 1.528154 19.41897 8.125154 4.329075 -27.06714 10.30962 5.372707 -16.55457 10.37848 87.86546 36.29498 -22.91618 -0 0 11.54118 -7.178698 10.0772 3.768422 8.077282 -22.13413 -0.2400577 -91.42013 27.06325 18.40862 0 0 -23.51667 8.596802 14.15109 5.522299
2.952736 97.0143 32.89781 -3.23251 4.758372 5.152254 9.651551 -34.25525 6.915737 -0 16.85233 -0 -8.188502 -2.882386 -1.50928 -3.929053 14.66889 -15.42747 -0 19.36927 -0 -3.776141 -20.13435 13.74743 -0.1532944 -0.8286692 2.803737 3.032551 8.093143 -8.520096 1.389494 19.463 8.112192 4.346203 -26.51817 9.953804 5.416024 -15.99217 10.32414 88.22582 36.3844 -23.09239 -0 0 10.65322 -7.823759 10.539 3.98832 7.815242 -22.1021 -0.5062528 -90.93903 26.82227 17.69708 0 0 -23.06647 8.285059 13.76294 5.766543
3.339522 96.85084 38.60685 -3.557188 3.936624 5.681974 9.88762 -32.20773 6.523084 -0 17.39974 -0 -8.65799 -2.822512 -1.835568 -3.312941 14.7035 -14.15828 -0 24.8051 -0 -5.515133 -17.35374 12.27954 0.5074467 -0.7640746 2.285825 2.946409 8.210556 -8.636505 1.211949 19.67532 7.988887 4.207333 -25.73451 9.482447 5.355973 -15.40829 10.29666 88.68657 36.11636 -23.19442 -0 0 9.644838 -8.671311 10.97254 4.370537 7.334868 -21.93839 -0.884584 -90.26473 26.46613 16.7296 0 0 -22.37708 7.850711 13.20709 6.045034
3.719502 97.09348 44.72338 -3.65835 2.685423 5.920107 9.835372 -28.67643 6.012162 -0 18.2693 -0 -8.873978 -3.646282 -2.324437 -2.806776 14.14494 -12.80685 -0 32.01347 -0 -7.055917 -13.74745 11.01123 1.131002 -0.7510521 1.953796 2.834369 8.404616 -8.672094 1.007903 20.07901 7.761169 3.923385 -24.76905 8.929323 5.216727 -14.89252 10.32977 89.17116 35.51118 -23.18215 -0 0 8.659704 -9.703836 11.37803 4.923073 6.620356 -21.61905 -1.33055 -89.59091 26.12423 15.80823 0 0 -21.46892 7.14903 12.5264 6.577009
4.110659 97.83929 51.07947 -3.411369 1.17833 5.788403 9.34602 -23.5266 5.366462 -0 18.94974 -0 -8.75193 -5.38019 -2.740209 -2.584598 12.19462 -11.54128 -0 41.10598 -0 -8.288276 -9.727864 10.01871 1.559038 -0.7272462 2.138763 2.658352 8.703254 -8.505759 0.801897 20.64811 7.494683 3.602134 -23.78136 8.361461 5.106824 -14.61167 10.48191 89.49374 34.81878 -22.99687 -0 0 7.999884 -10.87951 11.78065 5.622624 5.745145 -21.21048 -1.755481 -89.27635 26.04978 15.53296 0 0 -20.49189 6.029952 11.85484 7.67938
4.551802 99.07216 57.36751 -2.712339 -0.1718474 5.322547 8.299671 -17.32962 4.558247 -0 18.47083 -0 -8.365051 -7.475552 -2.601996 -2.792219 7.822817 -10.52821 -0 51.1739 -0 -9.022457 -6.299557 9.323604 1.53352 -0.5411604 3.202519 2.365531 9.156722 -8.011461 0.6201239 21.24713 7.323111 3.482239 -23.03881 7.84627 5.233991 -14.77763 10.82794 89.34297 34.63945 -22.54726 -0 0 8.071515 -12.12834 12.21388 6.393437 4.948204 -20.9691 -2.039359 -89.71017 26.37049 16.60319 0 0 -19.78084 4.640135 11.36496 9.377408
5.065901 100.5459 63.26245 -1.587713 -1.017019 4.70121 6.841755 -11.40846 3.662463 -0 16.11237 -0 -8.032647 -8.870719 -1.638556 -3.264324 0.7423686 -9.685957 -0 59.60335 -0 -8.909063 -4.654333 9.149895 0.8360354 -0.05189484 5.070817 1.944438 9.792077 -7.210724 0.4879773 21.68239 7.301879 3.768463 -22.62573 7.358332 5.710532 -15.45577 11.3733 88.43386 35.52483 -21.6056 -0 0 9.043556 -13.37526 12.62002 7.114095 4.5664 -21.20186 -2.123575 -90.81622 26.59047 18.92151 0 0 -19.54814 3.726811 11.09255 10.77647
